solid Digit Plate Lid
facet normal 0.0 0.0 -1.0
  outer loop
    vertex 35.0 25.0 0.0
    vertex 0.0 0.0 0.0
    vertex 0.0 25.0 0.0
  endloop
endfacet
facet normal 0.0 0.0 -1.0
  outer loop
    vertex 0.0 0.0 0.0
    vertex 35.0 25.0 0.0
    vertex 35.0 0.0 0.0
  endloop
endfacet
facet normal -0.0 -0.0 1.0
  outer loop
    vertex 35.0 0.0 3.0
    vertex 8.459899447643692e-15 7.500000000000002 3.0
    vertex 0.0 0.0 3.0
  endloop
endfacet
facet normal -0.0 -0.0 1.0
  outer loop
    vertex 8.459899447643692e-15 7.500000000000002 3.0
    vertex 35.0 0.0 3.0
    vertex 35.0 7.500000000000002 3.0
  endloop
endfacet
facet normal -0.0 1.0 0.0
  outer loop
    vertex 0.0 25.0 3.0
    vertex 35.0 25.0 0.0
    vertex 0.0 25.0 0.0
  endloop
endfacet
facet normal -0.0 1.0 0.0
  outer loop
    vertex 35.0 25.0 0.0
    vertex 0.0 25.0 3.0
    vertex 35.0 25.0 3.0
  endloop
endfacet
facet normal 1.0 -0.0 -0.0
  outer loop
    vertex 35.0 25.0 0.0
    vertex 35.0 0.0 3.0
    vertex 35.0 0.0 0.0
  endloop
endfacet
facet normal 1.0 -0.0 -0.0
  outer loop
    vertex 35.0 0.0 3.0
    vertex 35.0 25.0 0.0
    vertex 35.0 7.500000000000002 3.0
  endloop
endfacet
facet normal 1.0 -0.0 -0.0
  outer loop
    vertex 35.0 7.500000000000002 3.0
    vertex 35.0 25.0 0.0
    vertex 35.0 17.499999999999996 2.9999999254942
  endloop
endfacet
facet normal 1.0 -0.0 -0.0
  outer loop
    vertex 35.0 17.499999999999996 2.9999999254942
    vertex 35.0 25.0 0.0
    vertex 35.0 25.0 3.0
  endloop
endfacet
facet normal -0.0 -1.0 -0.0
  outer loop
    vertex 35.0 0.0 3.0
    vertex 0.0 0.0 0.0
    vertex 35.0 0.0 0.0
  endloop
endfacet
facet normal -0.0 -1.0 -0.0
  outer loop
    vertex 0.0 0.0 0.0
    vertex 35.0 0.0 3.0
    vertex 0.0 0.0 3.0
  endloop
endfacet
facet normal -1.0 7.7816242658906235e-25 1.4099832237652933e-15
  outer loop
    vertex 8.459899447643692e-15 7.500000000000002 3.0
    vertex 0.0 0.0 0.0
    vertex 0.0 0.0 3.0
  endloop
endfacet
facet normal -1.0 7.7816242658906235e-25 1.4099832237652933e-15
  outer loop
    vertex 0.0 0.0 0.0
    vertex 8.459899447643692e-15 7.500000000000002 3.0
    vertex 0.0 25.0 0.0
  endloop
endfacet
facet normal -1.0 7.7816242658906235e-25 1.4099832237652933e-15
  outer loop
    vertex 0.0 25.0 0.0
    vertex 8.459899447643692e-15 7.500000000000002 3.0
    vertex 8.459899447643692e-15 17.499999999999996 2.9999999254942
  endloop
endfacet
facet normal -1.0 7.7816242658906235e-25 1.4099832237652933e-15
  outer loop
    vertex 0.0 25.0 0.0
    vertex 8.459899447643692e-15 17.499999999999996 2.9999999254942
    vertex 0.0 25.0 3.0
  endloop
endfacet
facet normal 1.0 -0.0 -0.0
  outer loop
    vertex 35.0 17.499999999999996 2.9999999254942
    vertex 35.0 7.67037087016162 4.294095231509861
    vertex 35.0 7.500000000000002 3.0
  endloop
endfacet
facet normal 1.0 -0.0 -0.0
  outer loop
    vertex 35.0 7.67037087016162 4.294095231509861
    vertex 35.0 17.499999999999996 2.9999999254942
    vertex 35.0 8.169872987286626 5.500000010753986
  endloop
endfacet
facet normal 1.0 -0.0 -0.0
  outer loop
    vertex 35.0 8.169872987286626 5.500000010753986
    vertex 35.0 17.499999999999996 2.9999999254942
    vertex 35.0 8.964466107238154 6.535533919103629
  endloop
endfacet
facet normal 1.0 -0.0 -0.0
  outer loop
    vertex 35.0 8.964466107238154 6.535533919103629
    vertex 35.0 17.499999999999996 2.9999999254942
    vertex 35.0 10.000000021507974 7.330127031339829
  endloop
endfacet
facet normal 1.0 -0.0 -0.0
  outer loop
    vertex 35.0 10.000000021507974 7.330127031339829
    vertex 35.0 17.499999999999996 2.9999999254942
    vertex 35.0 11.205904804473679 7.829629139480142
  endloop
endfacet
facet normal 1.0 -0.0 -0.0
  outer loop
    vertex 35.0 11.205904804473679 7.829629139480142
    vertex 35.0 17.499999999999996 2.9999999254942
    vertex 35.0 12.500000037252901 7.999999999999999
  endloop
endfacet
facet normal 1.0 -0.0 -0.0
  outer loop
    vertex 35.0 12.500000037252901 7.999999999999999
    vertex 35.0 17.499999999999996 2.9999999254942
    vertex 35.0 13.7940952674934 7.829629120196621
  endloop
endfacet
facet normal 1.0 -0.0 -0.0
  outer loop
    vertex 35.0 13.7940952674934 7.829629120196621
    vertex 35.0 17.499999999999996 2.9999999254942
    vertex 35.0 15.000000043015945 7.330126994086926
  endloop
endfacet
facet normal 1.0 -0.0 -0.0
  outer loop
    vertex 35.0 15.000000043015945 7.330126994086926
    vertex 35.0 17.499999999999996 2.9999999254942
    vertex 35.0 16.035533945445405 6.535533866420068
  endloop
endfacet
facet normal 1.0 -0.0 -0.0
  outer loop
    vertex 35.0 16.035533945445405 6.535533866420068
    vertex 35.0 17.499999999999996 2.9999999254942
    vertex 35.0 16.830127049966276 5.499999946230069
  endloop
endfacet
facet normal 1.0 -0.0 -0.0
  outer loop
    vertex 35.0 16.830127049966276 5.499999946230069
    vertex 35.0 17.499999999999996 2.9999999254942
    vertex 35.0 17.3296291491219 4.294095159542783
  endloop
endfacet
facet normal -1.0 0.0 0.0
  outer loop
    vertex 8.459899447643692e-15 7.67037087016162 4.294095231509861
    vertex 8.459899447643692e-15 17.499999999999996 2.9999999254942
    vertex 8.459899447643692e-15 7.500000000000002 3.0
  endloop
endfacet
facet normal -1.0 0.0 0.0
  outer loop
    vertex 8.459899447643692e-15 17.499999999999996 2.9999999254942
    vertex 8.459899447643692e-15 7.67037087016162 4.294095231509861
    vertex 8.459899447643692e-15 8.169872987286626 5.500000010753986
  endloop
endfacet
facet normal -1.0 0.0 0.0
  outer loop
    vertex 8.459899447643692e-15 17.499999999999996 2.9999999254942
    vertex 8.459899447643692e-15 8.169872987286626 5.500000010753986
    vertex 8.459899447643692e-15 8.964466107238154 6.535533919103629
  endloop
endfacet
facet normal -1.0 0.0 0.0
  outer loop
    vertex 8.459899447643692e-15 17.499999999999996 2.9999999254942
    vertex 8.459899447643692e-15 8.964466107238154 6.535533919103629
    vertex 8.459899447643692e-15 10.000000021507974 7.330127031339829
  endloop
endfacet
facet normal -1.0 0.0 0.0
  outer loop
    vertex 8.459899447643692e-15 17.499999999999996 2.9999999254942
    vertex 8.459899447643692e-15 10.000000021507974 7.330127031339829
    vertex 8.459899447643692e-15 11.205904804473679 7.829629139480142
  endloop
endfacet
facet normal -1.0 0.0 0.0
  outer loop
    vertex 8.459899447643692e-15 17.499999999999996 2.9999999254942
    vertex 8.459899447643692e-15 11.205904804473679 7.829629139480142
    vertex 8.459899447643692e-15 12.500000037252901 7.999999999999999
  endloop
endfacet
facet normal -1.0 0.0 0.0
  outer loop
    vertex 8.459899447643692e-15 17.499999999999996 2.9999999254942
    vertex 8.459899447643692e-15 12.500000037252901 7.999999999999999
    vertex 8.459899447643692e-15 13.7940952674934 7.829629120196621
  endloop
endfacet
facet normal -1.0 0.0 0.0
  outer loop
    vertex 8.459899447643692e-15 17.499999999999996 2.9999999254942
    vertex 8.459899447643692e-15 13.7940952674934 7.829629120196621
    vertex 8.459899447643692e-15 15.000000043015945 7.330126994086926
  endloop
endfacet
facet normal -1.0 0.0 0.0
  outer loop
    vertex 8.459899447643692e-15 17.499999999999996 2.9999999254942
    vertex 8.459899447643692e-15 15.000000043015945 7.330126994086926
    vertex 8.459899447643692e-15 16.035533945445405 6.535533866420068
  endloop
endfacet
facet normal -1.0 0.0 0.0
  outer loop
    vertex 8.459899447643692e-15 17.499999999999996 2.9999999254942
    vertex 8.459899447643692e-15 16.035533945445405 6.535533866420068
    vertex 8.459899447643692e-15 16.830127049966276 5.499999946230069
  endloop
endfacet
facet normal -1.0 0.0 0.0
  outer loop
    vertex 8.459899447643692e-15 17.499999999999996 2.9999999254942
    vertex 8.459899447643692e-15 16.830127049966276 5.499999946230069
    vertex 8.459899447643692e-15 17.3296291491219 4.294095159542783
  endloop
endfacet
facet normal 2.3850045815397967e-19 0.9914448632377609 0.13052617806194158
  outer loop
    vertex 8.459899447643692e-15 17.3296291491219 4.294095159542783
    vertex 35.0 17.499999999999996 2.9999999254942
    vertex 8.459899447643692e-15 17.499999999999996 2.9999999254942
  endloop
endfacet
facet normal 2.3850045815397967e-19 0.9914448632377609 0.13052617806194158
  outer loop
    vertex 35.0 17.499999999999996 2.9999999254942
    vertex 8.459899447643692e-15 17.3296291491219 4.294095159542783
    vertex 35.0 17.3296291491219 4.294095159542783
  endloop
endfacet
facet normal 0.0 0.9238795375009107 0.38268342031907204
  outer loop
    vertex 8.459899447643692e-15 16.830127049966276 5.499999946230069
    vertex 35.0 17.3296291491219 4.294095159542783
    vertex 8.459899447643692e-15 17.3296291491219 4.294095159542783
  endloop
endfacet
facet normal 0.0 0.9238795375009107 0.38268342031907204
  outer loop
    vertex 35.0 17.3296291491219 4.294095159542783
    vertex 8.459899447643692e-15 16.830127049966276 5.499999946230069
    vertex 35.0 16.830127049966276 5.499999946230069
  endloop
endfacet
facet normal 0.0 0.7933533474726431 0.6087614196497277
  outer loop
    vertex 8.459899447643692e-15 16.035533945445405 6.535533866420068
    vertex 35.0 16.830127049966276 5.499999946230069
    vertex 8.459899447643692e-15 16.830127049966276 5.499999946230069
  endloop
endfacet
facet normal 0.0 0.7933533474726431 0.6087614196497277
  outer loop
    vertex 35.0 16.830127049966276 5.499999946230069
    vertex 8.459899447643692e-15 16.035533945445405 6.535533866420068
    vertex 35.0 16.035533945445405 6.535533866420068
  endloop
endfacet
facet normal 0.0 0.6087614373825564 0.7933533338657651
  outer loop
    vertex 35.0 15.000000043015945 7.330126994086926
    vertex 8.459899447643692e-15 16.035533945445405 6.535533866420068
    vertex 8.459899447643692e-15 15.000000043015945 7.330126994086926
  endloop
endfacet
facet normal 0.0 0.6087614373825564 0.7933533338657651
  outer loop
    vertex 8.459899447643692e-15 16.035533945445405 6.535533866420068
    vertex 35.0 15.000000043015945 7.330126994086926
    vertex 35.0 16.035533945445405 6.535533866420068
  endloop
endfacet
facet normal 0.0 0.3826834409693885 0.9238795289472695
  outer loop
    vertex 35.0 13.7940952674934 7.829629120196621
    vertex 8.459899447643692e-15 15.000000043015945 7.330126994086926
    vertex 8.459899447643692e-15 13.7940952674934 7.829629120196621
  endloop
endfacet
facet normal 0.0 0.3826834409693885 0.9238795289472695
  outer loop
    vertex 8.459899447643692e-15 15.000000043015945 7.330126994086926
    vertex 35.0 13.7940952674934 7.829629120196621
    vertex 35.0 15.000000043015945 7.330126994086926
  endloop
endfacet
facet normal 0.0 0.13052620022246036 0.9914448603202733
  outer loop
    vertex 35.0 12.500000037252901 7.999999999999999
    vertex 8.459899447643692e-15 13.7940952674934 7.829629120196621
    vertex 8.459899447643692e-15 12.500000037252901 7.999999999999999
  endloop
endfacet
facet normal 0.0 0.13052620022246036 0.9914448603202733
  outer loop
    vertex 8.459899447643692e-15 13.7940952674934 7.829629120196621
    vertex 35.0 12.500000037252901 7.999999999999999
    vertex 35.0 13.7940952674934 7.829629120196621
  endloop
endfacet
facet normal 0.0 -0.1305261854487819 0.9914448622652651
  outer loop
    vertex 35.0 11.205904804473679 7.829629139480142
    vertex 8.459899447643692e-15 12.500000037252901 7.999999999999999
    vertex 8.459899447643692e-15 11.205904804473679 7.829629139480142
  endloop
endfacet
facet normal 0.0 -0.1305261854487819 0.9914448622652651
  outer loop
    vertex 8.459899447643692e-15 12.500000037252901 7.999999999999999
    vertex 35.0 11.205904804473679 7.829629139480142
    vertex 35.0 12.500000037252901 7.999999999999999
  endloop
endfacet
facet normal 0.0 -0.3826834272025099 0.9238795346496974
  outer loop
    vertex 35.0 10.000000021507974 7.330127031339829
    vertex 8.459899447643692e-15 11.205904804473679 7.829629139480142
    vertex 8.459899447643692e-15 10.000000021507974 7.330127031339829
  endloop
endfacet
facet normal 0.0 -0.3826834272025099 0.9238795346496974
  outer loop
    vertex 8.459899447643692e-15 11.205904804473679 7.829629139480142
    vertex 35.0 10.000000021507974 7.330127031339829
    vertex 35.0 11.205904804473679 7.829629139480142
  endloop
endfacet
facet normal 0.0 -0.6087614255606709 0.7933533429370166
  outer loop
    vertex 35.0 8.964466107238154 6.535533919103629
    vertex 8.459899447643692e-15 10.000000021507974 7.330127031339829
    vertex 8.459899447643692e-15 8.964466107238154 6.535533919103629
  endloop
endfacet
facet normal 0.0 -0.6087614255606709 0.7933533429370166
  outer loop
    vertex 8.459899447643692e-15 10.000000021507974 7.330127031339829
    vertex 35.0 8.964466107238154 6.535533919103629
    vertex 35.0 10.000000021507974 7.330127031339829
  endloop
endfacet
facet normal 0.0 -0.7933533384013916 0.6087614314716128
  outer loop
    vertex 35.0 8.964466107238154 6.535533919103629
    vertex 8.459899447643692e-15 8.169872987286626 5.500000010753986
    vertex 35.0 8.169872987286626 5.500000010753986
  endloop
endfacet
facet normal 0.0 -0.7933533384013916 0.6087614314716128
  outer loop
    vertex 8.459899447643692e-15 8.169872987286626 5.500000010753986
    vertex 35.0 8.964466107238154 6.535533919103629
    vertex 8.459899447643692e-15 8.964466107238154 6.535533919103629
  endloop
endfacet
facet normal 0.0 -0.9238795317984833 0.3826834340859499
  outer loop
    vertex 35.0 8.169872987286626 5.500000010753986
    vertex 8.459899447643692e-15 7.67037087016162 4.294095231509861
    vertex 35.0 7.67037087016162 4.294095231509861
  endloop
endfacet
facet normal 0.0 -0.9238795317984833 0.3826834340859499
  outer loop
    vertex 8.459899447643692e-15 7.67037087016162 4.294095231509861
    vertex 35.0 8.169872987286626 5.500000010753986
    vertex 8.459899447643692e-15 8.169872987286626 5.500000010753986
  endloop
endfacet
facet normal 2.264488790330165e-19 -0.9914448612927691 0.1305261928356211
  outer loop
    vertex 35.0 7.67037087016162 4.294095231509861
    vertex 8.459899447643692e-15 7.500000000000002 3.0
    vertex 35.0 7.500000000000002 3.0
  endloop
endfacet
facet normal 2.264488790330165e-19 -0.9914448612927691 0.1305261928356211
  outer loop
    vertex 8.459899447643692e-15 7.500000000000002 3.0
    vertex 35.0 7.67037087016162 4.294095231509861
    vertex 8.459899447643692e-15 7.67037087016162 4.294095231509861
  endloop
endfacet
facet normal 1.6269574548401384e-32 -9.934106720566045e-09 1.0
  outer loop
    vertex 8.459899447643692e-15 17.499999999999996 2.9999999254942
    vertex 35.0 25.0 3.0
    vertex 0.0 25.0 3.0
  endloop
endfacet
facet normal 1.6269574548401384e-32 -9.934106720566045e-09 1.0
  outer loop
    vertex 35.0 25.0 3.0
    vertex 8.459899447643692e-15 17.499999999999996 2.9999999254942
    vertex 35.0 17.499999999999996 2.9999999254942
  endloop
endfacet
facet normal -1.089109893817994e-25 7.45058004042454e-09 1.0
  outer loop
    vertex 35.0 7.500000000000002 3.0
    vertex 8.459899447643692e-15 17.499999999999996 2.9999999254942
    vertex 8.459899447643692e-15 7.500000000000002 3.0
  endloop
endfacet
facet normal -1.089109893817994e-25 7.45058004042454e-09 1.0
  outer loop
    vertex 8.459899447643692e-15 17.499999999999996 2.9999999254942
    vertex 35.0 7.500000000000002 3.0
    vertex 35.0 17.499999999999996 2.9999999254942
  endloop
endfacet
endsolid Digit Plate Lid
