solid Digit Plate Base
facet normal 0.0 0.0 -1.0
  outer loop
    vertex 35.0 25.0 0.0
    vertex 0.0 22.5 0.0
    vertex 0.0 25.0 0.0
  endloop
endfacet
facet normal 0.0 0.0 -1.0
  outer loop
    vertex 0.0 22.5 0.0
    vertex 35.0 25.0 0.0
    vertex 34.99999999999999 22.5 0.0
  endloop
endfacet
facet normal -0.0 -0.0 1.0
  outer loop
    vertex 0.0 25.0 15.0
    vertex 1.9999999999999996 22.5 15.0
    vertex 2.000000000000001 25.0 15.0
  endloop
endfacet
facet normal -0.0 -0.0 1.0
  outer loop
    vertex 1.9999999999999996 22.5 15.0
    vertex 0.0 25.0 15.0
    vertex 1.9999999999999996 2.4999999999999996 15.0
  endloop
endfacet
facet normal -0.0 -0.0 1.0
  outer loop
    vertex 0.0 0.0 15.0
    vertex 1.9999999999999996 2.4999999999999996 15.0
    vertex 0.0 25.0 15.0
  endloop
endfacet
facet normal -0.0 -0.0 1.0
  outer loop
    vertex 1.9999999999999996 2.4999999999999996 15.0
    vertex 0.0 0.0 15.0
    vertex 35.0 0.0 15.0
  endloop
endfacet
facet normal -0.0 -0.0 1.0
  outer loop
    vertex 1.9999999999999996 2.4999999999999996 15.0
    vertex 35.0 0.0 15.0
    vertex 32.99999999999999 2.4999999999999996 15.0
  endloop
endfacet
facet normal -0.0 -0.0 1.0
  outer loop
    vertex 32.99999999999999 2.4999999999999996 15.0
    vertex 35.0 0.0 15.0
    vertex 32.99999999999999 22.5 15.0
  endloop
endfacet
facet normal -0.0 -0.0 1.0
  outer loop
    vertex 32.99999999999999 22.5 15.0
    vertex 35.0 0.0 15.0
    vertex 32.99999999999999 25.0 15.0
  endloop
endfacet
facet normal -0.0 -0.0 1.0
  outer loop
    vertex 32.99999999999999 25.0 15.0
    vertex 35.0 0.0 15.0
    vertex 35.0 25.0 15.0
  endloop
endfacet
facet normal -0.0 -1.0 -0.0
  outer loop
    vertex 35.0 0.0 15.0
    vertex 0.0 0.0 0.0
    vertex 35.0 0.0 0.0
  endloop
endfacet
facet normal -0.0 -1.0 -0.0
  outer loop
    vertex 0.0 0.0 0.0
    vertex 35.0 0.0 15.0
    vertex 0.0 0.0 15.0
  endloop
endfacet
facet normal -1.0 0.0 0.0
  outer loop
    vertex 0.0 0.0 15.0
    vertex 0.0 6.250000000000002 5.416666666666669
    vertex 0.0 0.0 0.0
  endloop
endfacet
facet normal -1.0 0.0 0.0
  outer loop
    vertex 0.0 6.250000000000002 5.416666666666669
    vertex 0.0 0.0 15.0
    vertex 0.0 8.1670593686796 6.556061025497678
  endloop
endfacet
facet normal -1.0 0.0 0.0
  outer loop
    vertex 0.0 8.1670593686796 6.556061025497678
    vertex 0.0 0.0 15.0
    vertex 0.0 25.0 15.0
  endloop
endfacet
facet normal -1.0 0.0 0.0
  outer loop
    vertex 0.0 0.0 0.0
    vertex 0.0 6.250000000000002 5.416666666666669
    vertex 0.0 4.619404792291944 3.895320093206936
  endloop
endfacet
facet normal -1.0 0.0 0.0
  outer loop
    vertex 0.0 0.0 0.0
    vertex 0.0 4.619404792291944 3.895320093206936
    vertex 0.0 3.350010879645077 2.061751108272572
  endloop
endfacet
facet normal -1.0 0.0 0.0
  outer loop
    vertex 0.0 0.0 0.0
    vertex 0.0 3.350010879645077 2.061751108272572
    vertex 0.0 2.500000000000004 4.229949723821846e-15
  endloop
endfacet
facet normal -1.0 0.0 0.0
  outer loop
    vertex 0.0 8.1670593686796 6.556061025497678
    vertex 0.0 25.0 15.0
    vertex 0.0 10.282715889757712 7.261279865857049
  endloop
endfacet
facet normal -1.0 0.0 0.0
  outer loop
    vertex 0.0 10.282715889757712 7.261279865857049
    vertex 0.0 25.0 15.0
    vertex 0.0 12.5 7.5
  endloop
endfacet
facet normal -1.0 0.0 0.0
  outer loop
    vertex 0.0 12.5 7.5
    vertex 0.0 25.0 15.0
    vertex 0.0 14.717284110242286 7.261279865857049
  endloop
endfacet
facet normal -1.0 0.0 0.0
  outer loop
    vertex 0.0 14.717284110242286 7.261279865857049
    vertex 0.0 25.0 15.0
    vertex 0.0 16.832940631320398 6.556061025497678
  endloop
endfacet
facet normal -1.0 0.0 0.0
  outer loop
    vertex 0.0 16.832940631320398 6.556061025497678
    vertex 0.0 25.0 15.0
    vertex 0.0 18.75 5.416666666666667
  endloop
endfacet
facet normal -1.0 0.0 0.0
  outer loop
    vertex 0.0 18.75 5.416666666666667
    vertex 0.0 25.0 15.0
    vertex 0.0 20.380595207708055 3.895320093206934
  endloop
endfacet
facet normal -1.0 0.0 0.0
  outer loop
    vertex 0.0 20.380595207708055 3.895320093206934
    vertex 0.0 25.0 15.0
    vertex 0.0 21.649989120354924 2.061751108272569
  endloop
endfacet
facet normal -1.0 0.0 0.0
  outer loop
    vertex 0.0 21.649989120354924 2.061751108272569
    vertex 0.0 25.0 15.0
    vertex 0.0 22.5 0.0
  endloop
endfacet
facet normal -1.0 0.0 0.0
  outer loop
    vertex 0.0 22.5 0.0
    vertex 0.0 25.0 15.0
    vertex 0.0 25.0 0.0
  endloop
endfacet
facet normal -0.0 1.0 -0.0
  outer loop
    vertex 0.0 25.0 0.0
    vertex 2.0000000000000013 25.0 11.000000000000002
    vertex 35.0 25.0 0.0
  endloop
endfacet
facet normal -0.0 1.0 -0.0
  outer loop
    vertex 2.0000000000000013 25.0 11.000000000000002
    vertex 0.0 25.0 0.0
    vertex 0.0 25.0 15.0
  endloop
endfacet
facet normal -0.0 1.0 -0.0
  outer loop
    vertex 2.0000000000000013 25.0 11.000000000000002
    vertex 0.0 25.0 15.0
    vertex 2.000000000000001 25.0 15.0
  endloop
endfacet
facet normal -0.0 1.0 -0.0
  outer loop
    vertex 35.0 25.0 0.0
    vertex 32.99999999999999 25.0 11.000000000000002
    vertex 35.0 25.0 15.0
  endloop
endfacet
facet normal -0.0 1.0 -0.0
  outer loop
    vertex 32.99999999999999 25.0 11.000000000000002
    vertex 35.0 25.0 0.0
    vertex 2.0000000000000013 25.0 11.000000000000002
  endloop
endfacet
facet normal -0.0 1.0 -0.0
  outer loop
    vertex 35.0 25.0 15.0
    vertex 32.99999999999999 25.0 11.000000000000002
    vertex 32.99999999999999 25.0 15.0
  endloop
endfacet
facet normal 1.0 6.104727607724389e-34 -1.879977655031931e-16
  outer loop
    vertex 34.99999999999999 2.500000000000004 4.229949723821846e-15
    vertex 35.0 0.0 15.0
    vertex 35.0 0.0 0.0
  endloop
endfacet
facet normal 1.0 6.104727607724389e-34 -1.879977655031931e-16
  outer loop
    vertex 35.0 0.0 15.0
    vertex 34.99999999999999 2.500000000000004 4.229949723821846e-15
    vertex 34.99999999999999 3.350010879645077 2.061751108272572
  endloop
endfacet
facet normal 1.0 6.104727607724389e-34 -1.879977655031931e-16
  outer loop
    vertex 35.0 0.0 15.0
    vertex 34.99999999999999 3.350010879645077 2.061751108272572
    vertex 34.99999999999999 4.619404792291944 3.895320093206936
  endloop
endfacet
facet normal 1.0 6.104727607724389e-34 -1.879977655031931e-16
  outer loop
    vertex 35.0 0.0 15.0
    vertex 34.99999999999999 4.619404792291944 3.895320093206936
    vertex 34.99999999999999 6.250000000000002 5.416666666666669
  endloop
endfacet
facet normal 1.0 6.104727607724389e-34 -1.879977655031931e-16
  outer loop
    vertex 35.0 0.0 15.0
    vertex 34.99999999999999 6.250000000000002 5.416666666666669
    vertex 34.99999999999999 8.1670593686796 6.556061025497678
  endloop
endfacet
facet normal 1.0 6.104727607724389e-34 -1.879977655031931e-16
  outer loop
    vertex 35.0 0.0 15.0
    vertex 34.99999999999999 8.1670593686796 6.556061025497678
    vertex 35.0 25.0 15.0
  endloop
endfacet
facet normal 1.0 6.104727607724389e-34 -1.879977655031931e-16
  outer loop
    vertex 35.0 25.0 15.0
    vertex 34.99999999999999 8.1670593686796 6.556061025497678
    vertex 34.99999999999999 10.282715889757712 7.261279865857049
  endloop
endfacet
facet normal 1.0 6.104727607724389e-34 -1.879977655031931e-16
  outer loop
    vertex 35.0 25.0 15.0
    vertex 34.99999999999999 10.282715889757712 7.261279865857049
    vertex 34.99999999999999 12.5 7.5
  endloop
endfacet
facet normal 1.0 6.104727607724389e-34 -1.879977655031931e-16
  outer loop
    vertex 35.0 25.0 15.0
    vertex 34.99999999999999 12.5 7.5
    vertex 34.99999999999999 14.717284110242286 7.261279865857049
  endloop
endfacet
facet normal 1.0 6.104727607724389e-34 -1.879977655031931e-16
  outer loop
    vertex 35.0 25.0 15.0
    vertex 34.99999999999999 14.717284110242286 7.261279865857049
    vertex 34.99999999999999 16.832940631320398 6.556061025497678
  endloop
endfacet
facet normal 1.0 6.104727607724389e-34 -1.879977655031931e-16
  outer loop
    vertex 35.0 25.0 15.0
    vertex 34.99999999999999 16.832940631320398 6.556061025497678
    vertex 34.99999999999999 18.75 5.416666666666667
  endloop
endfacet
facet normal 1.0 6.104727607724389e-34 -1.879977655031931e-16
  outer loop
    vertex 35.0 25.0 15.0
    vertex 34.99999999999999 18.75 5.416666666666667
    vertex 34.99999999999999 20.380595207708055 3.895320093206934
  endloop
endfacet
facet normal 1.0 6.104727607724389e-34 -1.879977655031931e-16
  outer loop
    vertex 35.0 25.0 15.0
    vertex 34.99999999999999 20.380595207708055 3.895320093206934
    vertex 34.99999999999999 21.649989120354924 2.061751108272569
  endloop
endfacet
facet normal 1.0 6.104727607724389e-34 -1.879977655031931e-16
  outer loop
    vertex 35.0 25.0 15.0
    vertex 34.99999999999999 21.649989120354924 2.061751108272569
    vertex 34.99999999999999 22.5 0.0
  endloop
endfacet
facet normal 1.0 6.104727607724389e-34 -1.879977655031931e-16
  outer loop
    vertex 35.0 25.0 15.0
    vertex 34.99999999999999 22.5 0.0
    vertex 35.0 25.0 0.0
  endloop
endfacet
facet normal 0.0 0.0 1.0
  outer loop
    vertex 32.99999999999999 2.4999999999999996 11.000000000000002
    vertex 1.9999999999999996 22.5 11.000000000000002
    vertex 1.9999999999999996 2.4999999999999996 11.000000000000002
  endloop
endfacet
facet normal 0.0 0.0 1.0
  outer loop
    vertex 1.9999999999999996 22.5 11.000000000000002
    vertex 32.99999999999999 2.4999999999999996 11.000000000000002
    vertex 32.99999999999999 22.5 11.000000000000002
  endloop
endfacet
facet normal 1.0 0.0 0.0
  outer loop
    vertex 1.9999999999999996 22.5 11.000000000000002
    vertex 1.9999999999999996 2.4999999999999996 15.0
    vertex 1.9999999999999996 2.4999999999999996 11.000000000000002
  endloop
endfacet
facet normal 1.0 0.0 0.0
  outer loop
    vertex 1.9999999999999996 2.4999999999999996 15.0
    vertex 1.9999999999999996 22.5 11.000000000000002
    vertex 1.9999999999999996 22.5 15.0
  endloop
endfacet
facet normal -0.0 1.0 -0.0
  outer loop
    vertex 1.9999999999999996 2.4999999999999996 15.0
    vertex 32.99999999999999 2.4999999999999996 11.000000000000002
    vertex 1.9999999999999996 2.4999999999999996 11.000000000000002
  endloop
endfacet
facet normal -0.0 1.0 -0.0
  outer loop
    vertex 32.99999999999999 2.4999999999999996 11.000000000000002
    vertex 1.9999999999999996 2.4999999999999996 15.0
    vertex 32.99999999999999 2.4999999999999996 15.0
  endloop
endfacet
facet normal -1.0 0.0 -0.0
  outer loop
    vertex 32.99999999999999 22.5 15.0
    vertex 32.99999999999999 2.4999999999999996 11.000000000000002
    vertex 32.99999999999999 2.4999999999999996 15.0
  endloop
endfacet
facet normal -1.0 0.0 -0.0
  outer loop
    vertex 32.99999999999999 2.4999999999999996 11.000000000000002
    vertex 32.99999999999999 22.5 15.0
    vertex 32.99999999999999 22.5 11.000000000000002
  endloop
endfacet
facet normal -1.0 0.0 0.0
  outer loop
    vertex 32.99999999999999 25.0 15.0
    vertex 32.99999999999999 22.5 11.000000000000002
    vertex 32.99999999999999 22.5 15.0
  endloop
endfacet
facet normal -1.0 0.0 0.0
  outer loop
    vertex 32.99999999999999 22.5 11.000000000000002
    vertex 32.99999999999999 25.0 15.0
    vertex 32.99999999999999 25.0 11.000000000000002
  endloop
endfacet
facet normal 1.0 -6.3449245857327675e-16 4.40619762898109e-17
  outer loop
    vertex 2.0000000000000013 25.0 11.000000000000002
    vertex 1.9999999999999996 22.5 15.0
    vertex 1.9999999999999996 22.5 11.000000000000002
  endloop
endfacet
facet normal 1.0 -6.3449245857327675e-16 4.40619762898109e-17
  outer loop
    vertex 1.9999999999999996 22.5 15.0
    vertex 2.0000000000000013 25.0 11.000000000000002
    vertex 2.000000000000001 25.0 15.0
  endloop
endfacet
facet normal -0.0 -0.0 1.0
  outer loop
    vertex 32.99999999999999 22.5 11.000000000000002
    vertex 2.0000000000000013 25.0 11.000000000000002
    vertex 1.9999999999999996 22.5 11.000000000000002
  endloop
endfacet
facet normal -0.0 -0.0 1.0
  outer loop
    vertex 2.0000000000000013 25.0 11.000000000000002
    vertex 32.99999999999999 22.5 11.000000000000002
    vertex 32.99999999999999 25.0 11.000000000000002
  endloop
endfacet
facet normal -0.0 0.9245115271162235 -0.38115408462881295
  outer loop
    vertex 0.0 3.350010879645077 2.061751108272572
    vertex 34.99999999999999 2.500000000000004 4.229949723821846e-15
    vertex 0.0 2.500000000000004 4.229949723821846e-15
  endloop
endfacet
facet normal -0.0 0.9245115271162235 -0.38115408462881295
  outer loop
    vertex 34.99999999999999 2.500000000000004 4.229949723821846e-15
    vertex 0.0 3.350010879645077 2.061751108272572
    vertex 34.99999999999999 3.350010879645077 2.061751108272572
  endloop
endfacet
facet normal -0.0 0.8221921916437785 -0.5692099788303082
  outer loop
    vertex 0.0 4.619404792291944 3.895320093206936
    vertex 34.99999999999999 3.350010879645077 2.061751108272572
    vertex 0.0 3.350010879645077 2.061751108272572
  endloop
endfacet
facet normal -0.0 0.8221921916437785 -0.5692099788303082
  outer loop
    vertex 34.99999999999999 3.350010879645077 2.061751108272572
    vertex 0.0 4.619404792291944 3.895320093206936
    vertex 34.99999999999999 4.619404792291944 3.895320093206936
  endloop
endfacet
facet normal -0.0 0.6821882807574797 -0.7311765515914429
  outer loop
    vertex 34.99999999999999 6.250000000000002 5.416666666666669
    vertex 0.0 4.619404792291944 3.895320093206936
    vertex 0.0 6.250000000000002 5.416666666666669
  endloop
endfacet
facet normal -0.0 0.6821882807574797 -0.7311765515914429
  outer loop
    vertex 0.0 4.619404792291944 3.895320093206936
    vertex 34.99999999999999 6.250000000000002 5.416666666666669
    vertex 34.99999999999999 4.619404792291944 3.895320093206936
  endloop
endfacet
facet normal -0.0 0.5109167709156912 -0.8596301839727843
  outer loop
    vertex 34.99999999999999 8.1670593686796 6.556061025497678
    vertex 0.0 6.250000000000002 5.416666666666669
    vertex 0.0 8.1670593686796 6.556061025497678
  endloop
endfacet
facet normal -0.0 0.5109167709156912 -0.8596301839727843
  outer loop
    vertex 0.0 6.250000000000002 5.416666666666669
    vertex 34.99999999999999 8.1670593686796 6.556061025497678
    vertex 34.99999999999999 6.250000000000002 5.416666666666669
  endloop
endfacet
facet normal -0.0 0.31622776601683794 -0.9486832980505139
  outer loop
    vertex 34.99999999999999 10.282715889757712 7.261279865857049
    vertex 0.0 8.1670593686796 6.556061025497678
    vertex 0.0 10.282715889757712 7.261279865857049
  endloop
endfacet
facet normal -0.0 0.31622776601683794 -0.9486832980505139
  outer loop
    vertex 0.0 8.1670593686796 6.556061025497678
    vertex 34.99999999999999 10.282715889757712 7.261279865857049
    vertex 34.99999999999999 8.1670593686796 6.556061025497678
  endloop
endfacet
facet normal -0.0 0.10704469365111755 -0.9942542097276422
  outer loop
    vertex 34.99999999999999 12.5 7.5
    vertex 0.0 10.282715889757712 7.261279865857049
    vertex 0.0 12.5 7.5
  endloop
endfacet
facet normal -0.0 0.10704469365111755 -0.9942542097276422
  outer loop
    vertex 0.0 10.282715889757712 7.261279865857049
    vertex 34.99999999999999 12.5 7.5
    vertex 34.99999999999999 10.282715889757712 7.261279865857049
  endloop
endfacet
facet normal -0.0 -0.10704469365111755 -0.9942542097276422
  outer loop
    vertex 34.99999999999999 14.717284110242286 7.261279865857049
    vertex 0.0 12.5 7.5
    vertex 0.0 14.717284110242286 7.261279865857049
  endloop
endfacet
facet normal -0.0 -0.10704469365111755 -0.9942542097276422
  outer loop
    vertex 0.0 12.5 7.5
    vertex 34.99999999999999 14.717284110242286 7.261279865857049
    vertex 34.99999999999999 12.5 7.5
  endloop
endfacet
facet normal -0.0 -0.31622776601683794 -0.9486832980505139
  outer loop
    vertex 34.99999999999999 16.832940631320398 6.556061025497678
    vertex 0.0 14.717284110242286 7.261279865857049
    vertex 0.0 16.832940631320398 6.556061025497678
  endloop
endfacet
facet normal -0.0 -0.31622776601683794 -0.9486832980505139
  outer loop
    vertex 0.0 14.717284110242286 7.261279865857049
    vertex 34.99999999999999 16.832940631320398 6.556061025497678
    vertex 34.99999999999999 14.717284110242286 7.261279865857049
  endloop
endfacet
facet normal -0.0 -0.5109167709156912 -0.8596301839727843
  outer loop
    vertex 34.99999999999999 18.75 5.416666666666667
    vertex 0.0 16.832940631320398 6.556061025497678
    vertex 0.0 18.75 5.416666666666667
  endloop
endfacet
facet normal -0.0 -0.5109167709156912 -0.8596301839727843
  outer loop
    vertex 0.0 16.832940631320398 6.556061025497678
    vertex 34.99999999999999 18.75 5.416666666666667
    vertex 34.99999999999999 16.832940631320398 6.556061025497678
  endloop
endfacet
facet normal -0.0 -0.68218828075748 -0.7311765515914428
  outer loop
    vertex 34.99999999999999 20.380595207708055 3.895320093206934
    vertex 0.0 18.75 5.416666666666667
    vertex 0.0 20.380595207708055 3.895320093206934
  endloop
endfacet
facet normal -0.0 -0.68218828075748 -0.7311765515914428
  outer loop
    vertex 0.0 18.75 5.416666666666667
    vertex 34.99999999999999 20.380595207708055 3.895320093206934
    vertex 34.99999999999999 18.75 5.416666666666667
  endloop
endfacet
facet normal -0.0 -0.8221921916437785 -0.5692099788303084
  outer loop
    vertex 34.99999999999999 20.380595207708055 3.895320093206934
    vertex 0.0 21.649989120354924 2.061751108272569
    vertex 34.99999999999999 21.649989120354924 2.061751108272569
  endloop
endfacet
facet normal -0.0 -0.8221921916437785 -0.5692099788303084
  outer loop
    vertex 0.0 21.649989120354924 2.061751108272569
    vertex 34.99999999999999 20.380595207708055 3.895320093206934
    vertex 0.0 20.380595207708055 3.895320093206934
  endloop
endfacet
facet normal 0.0 -0.9245115271162238 -0.38115408462881273
  outer loop
    vertex 34.99999999999999 21.649989120354924 2.061751108272569
    vertex 0.0 22.5 0.0
    vertex 34.99999999999999 22.5 0.0
  endloop
endfacet
facet normal 0.0 -0.9245115271162238 -0.38115408462881273
  outer loop
    vertex 0.0 22.5 0.0
    vertex 34.99999999999999 21.649989120354924 2.061751108272569
    vertex 0.0 21.649989120354924 2.061751108272569
  endloop
endfacet
facet normal 5.874898711214408e-33 1.6919798895287354e-15 -1.0
  outer loop
    vertex 34.99999999999999 2.500000000000004 4.229949723821846e-15
    vertex 0.0 0.0 0.0
    vertex 0.0 2.500000000000004 4.229949723821846e-15
  endloop
endfacet
facet normal 5.874898711214408e-33 1.6919798895287354e-15 -1.0
  outer loop
    vertex 0.0 0.0 0.0
    vertex 34.99999999999999 2.500000000000004 4.229949723821846e-15
    vertex 35.0 0.0 0.0
  endloop
endfacet
endsolid Digit Plate Base
