solid Servo Lobe Middle
facet normal -7.371083266067319e-30 -1.0 4.2891690199553514e-13
  outer loop
    vertex 45.0 5.361461274944194e-13 1.2500000000000022
    vertex 0.0 0.0 0.0
    vertex 45.0 0.0 0.0
  endloop
endfacet
facet normal -7.371083266067319e-30 -1.0 4.2891690199553514e-13
  outer loop
    vertex 0.0 0.0 0.0
    vertex 45.0 5.361461274944194e-13 1.2500000000000022
    vertex 0.0 5.361461274944191e-13 1.2499999999999996
  endloop
endfacet
facet normal -1.0 0.0 0.0
  outer loop
    vertex 0.0 5.361461274944191e-13 1.2499999999999996
    vertex 0.0 22.500000000000004 0.0
    vertex 0.0 0.0 0.0
  endloop
endfacet
facet normal -1.0 0.0 0.0
  outer loop
    vertex 0.0 22.500000000000004 0.0
    vertex 0.0 5.361461274944191e-13 1.2499999999999996
    vertex 0.0 22.500000000000533 1.2499999999999996
  endloop
endfacet
facet normal -0.6724619964765491 0.7401316526772611 -3.15615990795232e-13
  outer loop
    vertex 0.0 22.500000000000533 1.2499999999999996
    vertex 2.2538004515972148 24.547737244932684 0.0
    vertex 0.0 22.500000000000004 0.0
  endloop
endfacet
facet normal -0.6724619964765491 0.7401316526772611 -3.15615990795232e-13
  outer loop
    vertex 2.2538004515972148 24.547737244932684 0.0
    vertex 0.0 22.500000000000533 1.2499999999999996
    vertex 2.2538004515972148 24.547737244933227 1.2499999999999996
  endloop
endfacet
facet normal 0.12377466496037266 0.9923103508045996 -3.7877481237103855e-13
  outer loop
    vertex 24.923115120730742 31.727409492609308 1.2499999999999996
    vertex 27.944833633481903 31.35049898651861 0.0
    vertex 24.923115120730742 31.727409492608853 0.0
  endloop
endfacet
facet normal 0.12377466496037266 0.9923103508045996 -3.7877481237103855e-13
  outer loop
    vertex 27.944833633481903 31.35049898651861 0.0
    vertex 24.923115120730742 31.727409492609308 1.2499999999999996
    vertex 27.944833633481903 31.350498986519103 1.2499999999999996
  endloop
endfacet
facet normal -0.5986336880378712 0.8010229132466667 -3.366764253857701e-13
  outer loop
    vertex 2.2538004515972148 24.547737244933227 1.2499999999999996
    vertex 4.693022983270615 26.370657358618725 0.0
    vertex 2.2538004515972148 24.547737244932684 0.0
  endloop
endfacet
facet normal -0.5986336880378712 0.8010229132466667 -3.366764253857701e-13
  outer loop
    vertex 4.693022983270615 26.370657358618725 0.0
    vertex 2.2538004515972148 24.547737244933227 1.2499999999999996
    vertex 4.693022983270615 26.370657358619237 1.2499999999999996
  endloop
endfacet
facet normal 0.7518398074789747 0.6593458151000721 -2.918455250669575e-13
  outer loop
    vertex 33.77279020178434 29.5928525146375 0.0
    vertex 35.700900313105585 27.394264305393015 1.2500000000000022
    vertex 35.700900313105585 27.394264305392433 0.0
  endloop
endfacet
facet normal 0.7518398074789747 0.6593458151000721 -2.918455250669575e-13
  outer loop
    vertex 35.700900313105585 27.394264305393015 1.2500000000000022
    vertex 33.77279020178434 29.5928525146375 0.0
    vertex 33.77279020178412 29.592852514637933 1.249999999999981
  endloop
endfacet
facet normal -0.2559697128400082 0.9666848018400847 -3.886230716908656e-13
  outer loop
    vertex 12.892580574108658 30.334757160310968 1.2499999999999996
    vertex 15.836265842882566 31.11421937126603 0.0
    vertex 12.892580574108658 30.33475716031045 0.0
  endloop
endfacet
facet normal -0.2559697128400082 0.9666848018400847 -3.886230716908656e-13
  outer loop
    vertex 15.836265842882566 31.11421937126603 0.0
    vertex 12.892580574108658 30.334757160310968 1.2499999999999996
    vertex 15.836265842882566 31.11421937126652 1.2499999999999996
  endloop
endfacet
facet normal 0.9978589232386037 0.06540312923014305 -2.866999471908925e-14
  outer loop
    vertex 44.615018761821474 5.873678649902323 0.0
    vertex 45.0 5.361461274944194e-13 1.2500000000000022
    vertex 45.0 0.0 0.0
  endloop
endfacet
facet normal 0.9978589232386037 0.06540312923014305 -2.866999471908925e-14
  outer loop
    vertex 45.0 5.361461274944194e-13 1.2500000000000022
    vertex 44.615018761821474 5.873678649902323 0.0
    vertex 44.615018761821474 5.873678649902881 1.2500000000000022
  endloop
endfacet
facet normal 0.9469301294951057 0.32143946530316175 -1.4230430466247725e-13
  outer loop
    vertex 41.5745789630079 17.220754456429052 0.0
    vertex 43.466662183008076 11.646857029613992 1.2500000000000022
    vertex 43.466662183008076 11.64685702961343 0.0
  endloop
endfacet
facet normal 0.9469301294951057 0.32143946530316175 -1.4230430466247725e-13
  outer loop
    vertex 43.466662183008076 11.646857029613992 1.2500000000000022
    vertex 41.5745789630079 17.220754456429052 0.0
    vertex 41.5745789630079 17.220754456429606 1.2500000000000022
  endloop
endfacet
facet normal 0.9807852804032307 0.19509032201612783 -8.683995324922238e-14
  outer loop
    vertex 43.466662183008076 11.64685702961343 0.0
    vertex 44.615018761821474 5.873678649902881 1.2500000000000022
    vertex 44.615018761821474 5.873678649902323 0.0
  endloop
endfacet
facet normal 0.9807852804032307 0.19509032201612783 -8.683995324922238e-14
  outer loop
    vertex 44.615018761821474 5.873678649902881 1.2500000000000022
    vertex 43.466662183008076 11.64685702961343 0.0
    vertex 43.466662183008076 11.646857029613992 1.2500000000000022
  endloop
endfacet
facet normal 0.7518398074790442 0.6593458150999928 -1.3834030309221458e-13
  outer loop
    vertex 33.57474284624225 29.81868224200122 0.0
    vertex 33.77279020178412 29.592852514637933 1.249999999999981
    vertex 33.77279020178434 29.5928525146375 0.0
  endloop
endfacet
facet normal 0.7518398074790442 0.6593458150999928 -1.3834030309221458e-13
  outer loop
    vertex 33.77279020178412 29.592852514637933 1.249999999999981
    vertex 33.57474284624225 29.81868224200122 0.0
    vertex 33.57474284624209 29.818682242001746 1.2499999999999925
  endloop
endfacet
facet normal -0.3472027167498153 0.9377901009722526 -3.7889612110044013e-13
  outer loop
    vertex 10.036883556653436 29.27747817896229 1.2499999999999996
    vertex 12.892580574108658 30.33475716031045 0.0
    vertex 10.036883556653436 29.2774781789618 0.0
  endloop
endfacet
facet normal -0.3472027167498153 0.9377901009722526 -3.7889612110044013e-13
  outer loop
    vertex 12.892580574108658 30.33475716031045 0.0
    vertex 10.036883556653436 29.27747817896229 1.2499999999999996
    vertex 12.892580574108658 30.334757160310968 1.2499999999999996
  endloop
endfacet
facet normal 0.028353203071311412 0.9995979671225813 -3.896743114644758e-13
  outer loop
    vertex 21.879204835895354 31.813748810290463 1.2499999999999996
    vertex 24.923115120730742 31.727409492608853 0.0
    vertex 21.879204835895354 31.813748810289944 0.0
  endloop
endfacet
facet normal 0.028353203071311412 0.9995979671225813 -3.896743114644758e-13
  outer loop
    vertex 24.923115120730742 31.727409492608853 0.0
    vertex 21.879204835895354 31.813748810290463 1.2499999999999996
    vertex 24.923115120730742 31.727409492609308 1.2499999999999996
  endloop
endfacet
facet normal -0.5193228739381235 0.8545781138109307 -3.678627687678402e-13
  outer loop
    vertex 4.693022983270615 26.370657358619237 1.2499999999999996
    vertex 7.29532830539152 27.952065373763926 0.0
    vertex 4.693022983270615 26.370657358618725 0.0
  endloop
endfacet
facet normal -0.5193228739381235 0.8545781138109307 -3.678627687678402e-13
  outer loop
    vertex 7.29532830539152 27.952065373763926 0.0
    vertex 4.693022983270615 26.370657358619237 1.2499999999999996
    vertex 7.29532830539152 27.952065373764494 1.2499999999999996
  endloop
endfacet
facet normal -0.43525591154065657 0.9003067763095601 -3.7836996445209153e-13
  outer loop
    vertex 7.29532830539152 27.952065373764494 1.2499999999999996
    vertex 10.036883556653436 29.2774781789618 0.0
    vertex 7.29532830539152 27.952065373763926 0.0
  endloop
endfacet
facet normal -0.43525591154065657 0.9003067763095601 -3.7836996445209153e-13
  outer loop
    vertex 10.036883556653436 29.2774781789618 0.0
    vertex 7.29532830539152 27.952065373764494 1.2499999999999996
    vertex 10.036883556653436 29.27747817896229 1.2499999999999996
  endloop
endfacet
facet normal -0.0673279277930609 0.9977309006636472 -4.1933428804372014e-13
  outer loop
    vertex 18.84098001960206 31.608726212599624 1.2499999999999996
    vertex 21.879204835895354 31.813748810289944 0.0
    vertex 18.84098001960206 31.608726212599088 0.0
  endloop
endfacet
facet normal -0.0673279277930609 0.9977309006636472 -4.1933428804372014e-13
  outer loop
    vertex 21.879204835895354 31.813748810289944 0.0
    vertex 18.84098001960206 31.608726212599624 1.2499999999999996
    vertex 21.879204835895354 31.813748810290463 1.2499999999999996
  endloop
endfacet
facet normal -0.16239244493747923 0.9867262507034197 -4.006953635994853e-13
  outer loop
    vertex 15.836265842882566 31.11421937126652 1.2499999999999996
    vertex 18.84098001960206 31.608726212599088 0.0
    vertex 15.836265842882566 31.11421937126603 0.0
  endloop
endfacet
facet normal -0.16239244493747923 0.9867262507034197 -4.006953635994853e-13
  outer loop
    vertex 18.84098001960206 31.608726212599088 0.0
    vertex 15.836265842882566 31.11421937126652 1.2499999999999996
    vertex 18.84098001960206 31.608726212599624 1.2499999999999996
  endloop
endfacet
facet normal 0.8314696123025468 0.5555702330196002 -2.475678729753802e-13
  outer loop
    vertex 35.700900313105585 27.394264305392433 0.0
    vertex 38.97114317029975 22.500000000000533 1.2500000000000022
    vertex 38.97114317029975 22.50000000000001 0.0
  endloop
endfacet
facet normal 0.8314696123025468 0.5555702330196002 -2.475678729753802e-13
  outer loop
    vertex 38.97114317029975 22.500000000000533 1.2500000000000022
    vertex 35.700900313105585 27.394264305392433 0.0
    vertex 35.700900313105585 27.394264305393015 1.2500000000000022
  endloop
endfacet
facet normal 0.8968727415326884 0.44228869021900163 -1.9167118043862135e-13
  outer loop
    vertex 38.97114317029975 22.50000000000001 0.0
    vertex 41.5745789630079 17.220754456429606 1.2500000000000022
    vertex 41.5745789630079 17.220754456429052 0.0
  endloop
endfacet
facet normal 0.8968727415326884 0.44228869021900163 -1.9167118043862135e-13
  outer loop
    vertex 41.5745789630079 17.220754456429606 1.2500000000000022
    vertex 38.97114317029975 22.50000000000001 0.0
    vertex 38.97114317029975 22.500000000000533 1.2500000000000022
  endloop
endfacet
facet normal 0.218062553322091 0.9759347943580301 -3.943077535643068e-13
  outer loop
    vertex 27.944833633481903 31.350498986519103 1.2499999999999996
    vertex 30.916686373865506 30.68646917590858 0.0
    vertex 27.944833633481903 31.35049898651861 0.0
  endloop
endfacet
facet normal 0.218062553322091 0.9759347943580301 -3.943077535643068e-13
  outer loop
    vertex 30.916686373865506 30.68646917590858 0.0
    vertex 27.944833633481903 31.350498986519103 1.2499999999999996
    vertex 30.916686373865506 30.686469175909096 1.2499999999999996
  endloop
endfacet
facet normal 0.3103533452841948 0.9506212711016463 -3.7550789484989993e-13
  outer loop
    vertex 30.916686373865506 30.686469175909096 1.2499999999999996
    vertex 33.57474284624225 29.81868224200122 0.0
    vertex 30.916686373865506 30.68646917590858 0.0
  endloop
endfacet
facet normal 0.3103533452841948 0.9506212711016463 -3.7550789484989993e-13
  outer loop
    vertex 33.57474284624225 29.81868224200122 0.0
    vertex 30.916686373865506 30.686469175909096 1.2499999999999996
    vertex 33.57474284624209 29.818682242001746 1.2499999999999925
  endloop
endfacet
facet normal 0.0 0.0 -1.0
  outer loop
    vertex 2.2538004515972148 24.547737244932684 0.0
    vertex 0.0 0.0 0.0
    vertex 0.0 22.500000000000004 0.0
  endloop
endfacet
facet normal 0.0 0.0 -1.0
  outer loop
    vertex 0.0 0.0 0.0
    vertex 2.2538004515972148 24.547737244932684 0.0
    vertex 45.0 0.0 0.0
  endloop
endfacet
facet normal 0.0 0.0 -1.0
  outer loop
    vertex 45.0 0.0 0.0
    vertex 2.2538004515972148 24.547737244932684 0.0
    vertex 4.693022983270615 26.370657358618725 0.0
  endloop
endfacet
facet normal 0.0 0.0 -1.0
  outer loop
    vertex 45.0 0.0 0.0
    vertex 4.693022983270615 26.370657358618725 0.0
    vertex 7.29532830539152 27.952065373763926 0.0
  endloop
endfacet
facet normal 0.0 0.0 -1.0
  outer loop
    vertex 45.0 0.0 0.0
    vertex 7.29532830539152 27.952065373763926 0.0
    vertex 10.036883556653436 29.2774781789618 0.0
  endloop
endfacet
facet normal 0.0 0.0 -1.0
  outer loop
    vertex 45.0 0.0 0.0
    vertex 10.036883556653436 29.2774781789618 0.0
    vertex 12.892580574108658 30.33475716031045 0.0
  endloop
endfacet
facet normal 0.0 0.0 -1.0
  outer loop
    vertex 45.0 0.0 0.0
    vertex 12.892580574108658 30.33475716031045 0.0
    vertex 15.836265842882566 31.11421937126603 0.0
  endloop
endfacet
facet normal 0.0 0.0 -1.0
  outer loop
    vertex 45.0 0.0 0.0
    vertex 15.836265842882566 31.11421937126603 0.0
    vertex 18.84098001960206 31.608726212599088 0.0
  endloop
endfacet
facet normal 0.0 0.0 -1.0
  outer loop
    vertex 45.0 0.0 0.0
    vertex 18.84098001960206 31.608726212599088 0.0
    vertex 21.879204835895354 31.813748810289944 0.0
  endloop
endfacet
facet normal 0.0 0.0 -1.0
  outer loop
    vertex 45.0 0.0 0.0
    vertex 21.879204835895354 31.813748810289944 0.0
    vertex 24.923115120730742 31.727409492608853 0.0
  endloop
endfacet
facet normal 0.0 0.0 -1.0
  outer loop
    vertex 45.0 0.0 0.0
    vertex 24.923115120730742 31.727409492608853 0.0
    vertex 27.944833633481903 31.35049898651861 0.0
  endloop
endfacet
facet normal 0.0 0.0 -1.0
  outer loop
    vertex 45.0 0.0 0.0
    vertex 27.944833633481903 31.35049898651861 0.0
    vertex 30.916686373865506 30.68646917590858 0.0
  endloop
endfacet
facet normal 0.0 0.0 -1.0
  outer loop
    vertex 45.0 0.0 0.0
    vertex 30.916686373865506 30.68646917590858 0.0
    vertex 33.57474284624225 29.81868224200122 0.0
  endloop
endfacet
facet normal 0.0 0.0 -1.0
  outer loop
    vertex 45.0 0.0 0.0
    vertex 33.57474284624225 29.81868224200122 0.0
    vertex 33.77279020178434 29.5928525146375 0.0
  endloop
endfacet
facet normal 0.0 0.0 -1.0
  outer loop
    vertex 45.0 0.0 0.0
    vertex 33.77279020178434 29.5928525146375 0.0
    vertex 35.700900313105585 27.394264305392433 0.0
  endloop
endfacet
facet normal 0.0 0.0 -1.0
  outer loop
    vertex 45.0 0.0 0.0
    vertex 35.700900313105585 27.394264305392433 0.0
    vertex 38.97114317029975 22.50000000000001 0.0
  endloop
endfacet
facet normal 0.0 0.0 -1.0
  outer loop
    vertex 45.0 0.0 0.0
    vertex 38.97114317029975 22.50000000000001 0.0
    vertex 41.5745789630079 17.220754456429052 0.0
  endloop
endfacet
facet normal 0.0 0.0 -1.0
  outer loop
    vertex 45.0 0.0 0.0
    vertex 41.5745789630079 17.220754456429052 0.0
    vertex 43.466662183008076 11.64685702961343 0.0
  endloop
endfacet
facet normal 0.0 0.0 -1.0
  outer loop
    vertex 45.0 0.0 0.0
    vertex 43.466662183008076 11.64685702961343 0.0
    vertex 44.615018761821474 5.873678649902323 0.0
  endloop
endfacet
facet normal 3.3178684498478167e-17 1.4361226614610447e-16 1.0
  outer loop
    vertex 45.0 5.361461274944194e-13 1.2500000000000022
    vertex 0.0 22.500000000000533 1.2499999999999996
    vertex 0.0 5.361461274944191e-13 1.2499999999999996
  endloop
endfacet
facet normal 3.3178684498478167e-17 1.4361226614610447e-16 1.0
  outer loop
    vertex 0.0 22.500000000000533 1.2499999999999996
    vertex 45.0 5.361461274944194e-13 1.2500000000000022
    vertex 2.2538004515972148 24.547737244933227 1.2499999999999996
  endloop
endfacet
facet normal 3.3178684498478167e-17 1.4361226614610447e-16 1.0
  outer loop
    vertex 2.2538004515972148 24.547737244933227 1.2499999999999996
    vertex 45.0 5.361461274944194e-13 1.2500000000000022
    vertex 4.693022983270615 26.370657358619237 1.2499999999999996
  endloop
endfacet
facet normal 3.3178684498478167e-17 1.4361226614610447e-16 1.0
  outer loop
    vertex 4.693022983270615 26.370657358619237 1.2499999999999996
    vertex 45.0 5.361461274944194e-13 1.2500000000000022
    vertex 7.29532830539152 27.952065373764494 1.2499999999999996
  endloop
endfacet
facet normal 3.3178684498478167e-17 1.4361226614610447e-16 1.0
  outer loop
    vertex 7.29532830539152 27.952065373764494 1.2499999999999996
    vertex 45.0 5.361461274944194e-13 1.2500000000000022
    vertex 10.036883556653436 29.27747817896229 1.2499999999999996
  endloop
endfacet
facet normal 3.3178684498478167e-17 1.4361226614610447e-16 1.0
  outer loop
    vertex 10.036883556653436 29.27747817896229 1.2499999999999996
    vertex 45.0 5.361461274944194e-13 1.2500000000000022
    vertex 12.892580574108658 30.334757160310968 1.2499999999999996
  endloop
endfacet
facet normal 3.3178684498478167e-17 1.4361226614610447e-16 1.0
  outer loop
    vertex 12.892580574108658 30.334757160310968 1.2499999999999996
    vertex 45.0 5.361461274944194e-13 1.2500000000000022
    vertex 15.836265842882566 31.11421937126652 1.2499999999999996
  endloop
endfacet
facet normal 3.3178684498478167e-17 1.4361226614610447e-16 1.0
  outer loop
    vertex 15.836265842882566 31.11421937126652 1.2499999999999996
    vertex 45.0 5.361461274944194e-13 1.2500000000000022
    vertex 18.84098001960206 31.608726212599624 1.2499999999999996
  endloop
endfacet
facet normal 3.3178684498478167e-17 1.4361226614610447e-16 1.0
  outer loop
    vertex 18.84098001960206 31.608726212599624 1.2499999999999996
    vertex 45.0 5.361461274944194e-13 1.2500000000000022
    vertex 21.879204835895354 31.813748810290463 1.2499999999999996
  endloop
endfacet
facet normal 3.3178684498478167e-17 1.4361226614610447e-16 1.0
  outer loop
    vertex 21.879204835895354 31.813748810290463 1.2499999999999996
    vertex 45.0 5.361461274944194e-13 1.2500000000000022
    vertex 24.923115120730742 31.727409492609308 1.2499999999999996
  endloop
endfacet
facet normal 3.3178684498478167e-17 1.4361226614610447e-16 1.0
  outer loop
    vertex 24.923115120730742 31.727409492609308 1.2499999999999996
    vertex 45.0 5.361461274944194e-13 1.2500000000000022
    vertex 27.944833633481903 31.350498986519103 1.2499999999999996
  endloop
endfacet
facet normal 3.3178684498478167e-17 1.4361226614610447e-16 1.0
  outer loop
    vertex 27.944833633481903 31.350498986519103 1.2499999999999996
    vertex 45.0 5.361461274944194e-13 1.2500000000000022
    vertex 30.916686373865506 30.686469175909096 1.2499999999999996
  endloop
endfacet
facet normal 3.3178684498478167e-17 1.4361226614610447e-16 1.0
  outer loop
    vertex 30.916686373865506 30.686469175909096 1.2499999999999996
    vertex 45.0 5.361461274944194e-13 1.2500000000000022
    vertex 33.57474284624209 29.818682242001746 1.2499999999999925
  endloop
endfacet
facet normal 3.3178684498478167e-17 1.4361226614610447e-16 1.0
  outer loop
    vertex 33.57474284624209 29.818682242001746 1.2499999999999925
    vertex 45.0 5.361461274944194e-13 1.2500000000000022
    vertex 33.77279020178412 29.592852514637933 1.249999999999981
  endloop
endfacet
facet normal 3.3178684498478167e-17 1.4361226614610447e-16 1.0
  outer loop
    vertex 33.77279020178412 29.592852514637933 1.249999999999981
    vertex 45.0 5.361461274944194e-13 1.2500000000000022
    vertex 35.700900313105585 27.394264305393015 1.2500000000000022
  endloop
endfacet
facet normal 3.3178684498478167e-17 1.4361226614610447e-16 1.0
  outer loop
    vertex 35.700900313105585 27.394264305393015 1.2500000000000022
    vertex 45.0 5.361461274944194e-13 1.2500000000000022
    vertex 38.97114317029975 22.500000000000533 1.2500000000000022
  endloop
endfacet
facet normal 3.3178684498478167e-17 1.4361226614610447e-16 1.0
  outer loop
    vertex 38.97114317029975 22.500000000000533 1.2500000000000022
    vertex 45.0 5.361461274944194e-13 1.2500000000000022
    vertex 41.5745789630079 17.220754456429606 1.2500000000000022
  endloop
endfacet
facet normal 3.3178684498478167e-17 1.4361226614610447e-16 1.0
  outer loop
    vertex 41.5745789630079 17.220754456429606 1.2500000000000022
    vertex 45.0 5.361461274944194e-13 1.2500000000000022
    vertex 43.466662183008076 11.646857029613992 1.2500000000000022
  endloop
endfacet
facet normal 3.3178684498478167e-17 1.4361226614610447e-16 1.0
  outer loop
    vertex 43.466662183008076 11.646857029613992 1.2500000000000022
    vertex 45.0 5.361461274944194e-13 1.2500000000000022
    vertex 44.615018761821474 5.873678649902881 1.2500000000000022
  endloop
endfacet
endsolid Servo Lobe Middle
