solid Servo Lobe Side
facet normal 0.0 0.0 -1.0
  outer loop
    vertex 2.504222723996905 27.275263605480756 0.0
    vertex 0.0 0.0 0.0
    vertex 0.0 25.0 0.0
  endloop
endfacet
facet normal 0.0 0.0 -1.0
  outer loop
    vertex 0.0 0.0 0.0
    vertex 2.504222723996905 27.275263605480756 0.0
    vertex 50.0 0.0 0.0
  endloop
endfacet
facet normal 0.0 0.0 -1.0
  outer loop
    vertex 50.0 0.0 0.0
    vertex 2.504222723996905 27.275263605480756 0.0
    vertex 5.214469981411795 29.300730398465237 0.0
  endloop
endfacet
facet normal 0.0 0.0 -1.0
  outer loop
    vertex 50.0 0.0 0.0
    vertex 5.214469981411795 29.300730398465237 0.0
    vertex 8.10592033932391 31.05785041529325 0.0
  endloop
endfacet
facet normal 0.0 0.0 -1.0
  outer loop
    vertex 50.0 0.0 0.0
    vertex 8.10592033932391 31.05785041529325 0.0
    vertex 11.152092840726038 32.53053130995755 0.0
  endloop
endfacet
facet normal 0.0 0.0 -1.0
  outer loop
    vertex 50.0 0.0 0.0
    vertex 11.152092840726038 32.53053130995755 0.0
    vertex 14.3250895267874 33.70528573367827 0.0
  endloop
endfacet
facet normal 0.0 0.0 -1.0
  outer loop
    vertex 50.0 0.0 0.0
    vertex 14.3250895267874 33.70528573367827 0.0
    vertex 17.595850936536184 34.57135485696226 0.0
  endloop
endfacet
facet normal 0.0 0.0 -1.0
  outer loop
    vertex 50.0 0.0 0.0
    vertex 17.595850936536184 34.57135485696226 0.0
    vertex 20.93442224400229 35.12080690288788 0.0
  endloop
endfacet
facet normal 0.0 0.0 -1.0
  outer loop
    vertex 50.0 0.0 0.0
    vertex 20.93442224400229 35.12080690288788 0.0
    vertex 24.310227595439276 35.34860978921104 0.0
  endloop
endfacet
facet normal 0.0 0.0 -1.0
  outer loop
    vertex 50.0 0.0 0.0
    vertex 24.310227595439276 35.34860978921104 0.0
    vertex 27.69235013414527 35.252677214009836 0.0
  endloop
endfacet
facet normal 0.0 0.0 -1.0
  outer loop
    vertex 50.0 0.0 0.0
    vertex 27.69235013414527 35.252677214009836 0.0
    vertex 31.049815148313225 34.833887762798454 0.0
  endloop
endfacet
facet normal 0.0 0.0 -1.0
  outer loop
    vertex 50.0 0.0 0.0
    vertex 31.049815148313225 34.833887762798454 0.0
    vertex 34.35187374873944 34.09607686212063 0.0
  endloop
endfacet
facet normal 0.0 0.0 -1.0
  outer loop
    vertex 50.0 0.0 0.0
    vertex 34.35187374873944 34.09607686212063 0.0
    vertex 37.30526982915809 33.13186915777905 0.0
  endloop
endfacet
facet normal 0.0 0.0 -1.0
  outer loop
    vertex 50.0 0.0 0.0
    vertex 37.30526982915809 33.13186915777905 0.0
    vertex 37.52532244642705 32.880947238486016 0.0
  endloop
endfacet
facet normal 0.0 0.0 -1.0
  outer loop
    vertex 50.0 0.0 0.0
    vertex 37.52532244642705 32.880947238486016 0.0
    vertex 39.667667014561765 30.438071450436027 0.0
  endloop
endfacet
facet normal 0.0 0.0 -1.0
  outer loop
    vertex 50.0 0.0 0.0
    vertex 39.667667014561765 30.438071450436027 0.0
    vertex 43.30127018922194 24.999999999999996 0.0
  endloop
endfacet
facet normal 0.0 0.0 -1.0
  outer loop
    vertex 50.0 0.0 0.0
    vertex 43.30127018922194 24.999999999999996 0.0
    vertex 46.19397662556434 19.134171618254488 0.0
  endloop
endfacet
facet normal 0.0 0.0 -1.0
  outer loop
    vertex 50.0 0.0 0.0
    vertex 46.19397662556434 19.134171618254488 0.0
    vertex 48.29629131445342 12.940952255126037 0.0
  endloop
endfacet
facet normal 0.0 0.0 -1.0
  outer loop
    vertex 50.0 0.0 0.0
    vertex 48.29629131445342 12.940952255126037 0.0
    vertex 49.57224306869052 6.526309611002578 0.0
  endloop
endfacet
facet normal 0.0 0.0 1.0
  outer loop
    vertex 50.0 0.0 2.5
    vertex 0.0 25.0 2.5
    vertex 0.0 0.0 2.5
  endloop
endfacet
facet normal 0.0 0.0 1.0
  outer loop
    vertex 0.0 25.0 2.5
    vertex 50.0 0.0 2.5
    vertex 2.504222723996905 27.275263605480756 2.5
  endloop
endfacet
facet normal 0.0 0.0 1.0
  outer loop
    vertex 2.504222723996905 27.275263605480756 2.5
    vertex 50.0 0.0 2.5
    vertex 5.214469981411795 29.300730398465237 2.5
  endloop
endfacet
facet normal 0.0 0.0 1.0
  outer loop
    vertex 5.214469981411795 29.300730398465237 2.5
    vertex 50.0 0.0 2.5
    vertex 8.10592033932391 31.05785041529325 2.5
  endloop
endfacet
facet normal 0.0 0.0 1.0
  outer loop
    vertex 8.10592033932391 31.05785041529325 2.5
    vertex 50.0 0.0 2.5
    vertex 11.152092840726038 32.53053130995755 2.5
  endloop
endfacet
facet normal 0.0 0.0 1.0
  outer loop
    vertex 11.152092840726038 32.53053130995755 2.5
    vertex 50.0 0.0 2.5
    vertex 14.3250895267874 33.70528573367827 2.5
  endloop
endfacet
facet normal 0.0 0.0 1.0
  outer loop
    vertex 14.3250895267874 33.70528573367827 2.5
    vertex 50.0 0.0 2.5
    vertex 17.595850936536184 34.57135485696226 2.5
  endloop
endfacet
facet normal 0.0 0.0 1.0
  outer loop
    vertex 17.595850936536184 34.57135485696226 2.5
    vertex 50.0 0.0 2.5
    vertex 20.93442224400229 35.12080690288788 2.5
  endloop
endfacet
facet normal 0.0 0.0 1.0
  outer loop
    vertex 20.93442224400229 35.12080690288788 2.5
    vertex 50.0 0.0 2.5
    vertex 24.310227595439276 35.34860978921104 2.5
  endloop
endfacet
facet normal 0.0 0.0 1.0
  outer loop
    vertex 24.310227595439276 35.34860978921104 2.5
    vertex 50.0 0.0 2.5
    vertex 27.69235013414527 35.252677214009836 2.5
  endloop
endfacet
facet normal 0.0 0.0 1.0
  outer loop
    vertex 27.69235013414527 35.252677214009836 2.5
    vertex 50.0 0.0 2.5
    vertex 31.049815148313225 34.833887762798454 2.5
  endloop
endfacet
facet normal 0.0 0.0 1.0
  outer loop
    vertex 31.049815148313225 34.833887762798454 2.5
    vertex 50.0 0.0 2.5
    vertex 34.35187374873944 34.09607686212063 2.5
  endloop
endfacet
facet normal 0.0 0.0 1.0
  outer loop
    vertex 34.35187374873944 34.09607686212063 2.5
    vertex 50.0 0.0 2.5
    vertex 37.30526982915809 33.13186915777905 2.5
  endloop
endfacet
facet normal 0.0 0.0 1.0
  outer loop
    vertex 37.30526982915809 33.13186915777905 2.5
    vertex 50.0 0.0 2.5
    vertex 37.52532244642705 32.880947238486016 2.5
  endloop
endfacet
facet normal 0.0 0.0 1.0
  outer loop
    vertex 37.52532244642705 32.880947238486016 2.5
    vertex 50.0 0.0 2.5
    vertex 39.667667014561765 30.438071450436027 2.5
  endloop
endfacet
facet normal 0.0 0.0 1.0
  outer loop
    vertex 39.667667014561765 30.438071450436027 2.5
    vertex 50.0 0.0 2.5
    vertex 43.30127018922194 24.999999999999996 2.5
  endloop
endfacet
facet normal 0.0 0.0 1.0
  outer loop
    vertex 43.30127018922194 24.999999999999996 2.5
    vertex 50.0 0.0 2.5
    vertex 46.19397662556434 19.134171618254488 2.5
  endloop
endfacet
facet normal 0.0 0.0 1.0
  outer loop
    vertex 46.19397662556434 19.134171618254488 2.5
    vertex 50.0 0.0 2.5
    vertex 48.29629131445342 12.940952255126037 2.5
  endloop
endfacet
facet normal 0.0 0.0 1.0
  outer loop
    vertex 48.29629131445342 12.940952255126037 2.5
    vertex 50.0 0.0 2.5
    vertex 49.57224306869052 6.526309611002578 2.5
  endloop
endfacet
facet normal 0.0 -1.0 0.0
  outer loop
    vertex 50.0 0.0 2.5
    vertex 0.0 0.0 0.0
    vertex 50.0 0.0 0.0
  endloop
endfacet
facet normal 0.0 -1.0 0.0
  outer loop
    vertex 0.0 0.0 0.0
    vertex 50.0 0.0 2.5
    vertex 0.0 0.0 2.5
  endloop
endfacet
facet normal -1.0 0.0 0.0
  outer loop
    vertex 0.0 25.0 2.5
    vertex 0.0 0.0 0.0
    vertex 0.0 0.0 2.5
  endloop
endfacet
facet normal -1.0 0.0 0.0
  outer loop
    vertex 0.0 0.0 0.0
    vertex 0.0 25.0 2.5
    vertex 0.0 25.0 0.0
  endloop
endfacet
facet normal -0.672461996476548 0.740131652677262 0.0
  outer loop
    vertex 0.0 25.0 2.5
    vertex 2.504222723996905 27.275263605480756 0.0
    vertex 0.0 25.0 0.0
  endloop
endfacet
facet normal -0.672461996476548 0.740131652677262 0.0
  outer loop
    vertex 2.504222723996905 27.275263605480756 0.0
    vertex 0.0 25.0 2.5
    vertex 2.504222723996905 27.275263605480756 2.5
  endloop
endfacet
facet normal -0.598633688037874 0.8010229132466646 0.0
  outer loop
    vertex 2.504222723996905 27.275263605480756 2.5
    vertex 5.214469981411795 29.300730398465237 0.0
    vertex 2.504222723996905 27.275263605480756 0.0
  endloop
endfacet
facet normal -0.598633688037874 0.8010229132466646 0.0
  outer loop
    vertex 5.214469981411795 29.300730398465237 0.0
    vertex 2.504222723996905 27.275263605480756 2.5
    vertex 5.214469981411795 29.300730398465237 2.5
  endloop
endfacet
facet normal -0.5193228739381173 0.8545781138109345 0.0
  outer loop
    vertex 5.214469981411795 29.300730398465237 2.5
    vertex 8.10592033932391 31.05785041529325 0.0
    vertex 5.214469981411795 29.300730398465237 0.0
  endloop
endfacet
facet normal -0.5193228739381173 0.8545781138109345 0.0
  outer loop
    vertex 8.10592033932391 31.05785041529325 0.0
    vertex 5.214469981411795 29.300730398465237 2.5
    vertex 8.10592033932391 31.05785041529325 2.5
  endloop
endfacet
facet normal -0.43525591154066656 0.9003067763095551 0.0
  outer loop
    vertex 8.10592033932391 31.05785041529325 2.5
    vertex 11.152092840726038 32.53053130995755 0.0
    vertex 8.10592033932391 31.05785041529325 0.0
  endloop
endfacet
facet normal -0.43525591154066656 0.9003067763095551 0.0
  outer loop
    vertex 11.152092840726038 32.53053130995755 0.0
    vertex 8.10592033932391 31.05785041529325 2.5
    vertex 11.152092840726038 32.53053130995755 2.5
  endloop
endfacet
facet normal -0.3472027167498101 0.9377901009722545 0.0
  outer loop
    vertex 11.152092840726038 32.53053130995755 2.5
    vertex 14.3250895267874 33.70528573367827 0.0
    vertex 11.152092840726038 32.53053130995755 0.0
  endloop
endfacet
facet normal -0.3472027167498101 0.9377901009722545 0.0
  outer loop
    vertex 14.3250895267874 33.70528573367827 0.0
    vertex 11.152092840726038 32.53053130995755 2.5
    vertex 14.3250895267874 33.70528573367827 2.5
  endloop
endfacet
facet normal -0.25596971284001435 0.966684801840083 0.0
  outer loop
    vertex 14.3250895267874 33.70528573367827 2.5
    vertex 17.595850936536184 34.57135485696226 0.0
    vertex 14.3250895267874 33.70528573367827 0.0
  endloop
endfacet
facet normal -0.25596971284001435 0.966684801840083 0.0
  outer loop
    vertex 17.595850936536184 34.57135485696226 0.0
    vertex 14.3250895267874 33.70528573367827 2.5
    vertex 17.595850936536184 34.57135485696226 2.5
  endloop
endfacet
facet normal -0.16239244493747104 0.986726250703421 0.0
  outer loop
    vertex 17.595850936536184 34.57135485696226 2.5
    vertex 20.93442224400229 35.12080690288788 0.0
    vertex 17.595850936536184 34.57135485696226 0.0
  endloop
endfacet
facet normal -0.16239244493747104 0.986726250703421 0.0
  outer loop
    vertex 20.93442224400229 35.12080690288788 0.0
    vertex 17.595850936536184 34.57135485696226 2.5
    vertex 20.93442224400229 35.12080690288788 2.5
  endloop
endfacet
facet normal -0.06732792779306339 0.997730900663647 0.0
  outer loop
    vertex 20.93442224400229 35.12080690288788 2.5
    vertex 24.310227595439276 35.34860978921104 0.0
    vertex 20.93442224400229 35.12080690288788 0.0
  endloop
endfacet
facet normal -0.06732792779306339 0.997730900663647 0.0
  outer loop
    vertex 24.310227595439276 35.34860978921104 0.0
    vertex 20.93442224400229 35.12080690288788 2.5
    vertex 24.310227595439276 35.34860978921104 2.5
  endloop
endfacet
facet normal 0.0283532030713014 0.9995979671225816 0.0
  outer loop
    vertex 24.310227595439276 35.34860978921104 2.5
    vertex 27.69235013414527 35.252677214009836 0.0
    vertex 24.310227595439276 35.34860978921104 0.0
  endloop
endfacet
facet normal 0.0283532030713014 0.9995979671225816 0.0
  outer loop
    vertex 27.69235013414527 35.252677214009836 0.0
    vertex 24.310227595439276 35.34860978921104 2.5
    vertex 27.69235013414527 35.252677214009836 2.5
  endloop
endfacet
facet normal 0.12377466496037921 0.9923103508045987 0.0
  outer loop
    vertex 27.69235013414527 35.252677214009836 2.5
    vertex 31.049815148313225 34.833887762798454 0.0
    vertex 27.69235013414527 35.252677214009836 0.0
  endloop
endfacet
facet normal 0.12377466496037921 0.9923103508045987 0.0
  outer loop
    vertex 31.049815148313225 34.833887762798454 0.0
    vertex 27.69235013414527 35.252677214009836 2.5
    vertex 31.049815148313225 34.833887762798454 2.5
  endloop
endfacet
facet normal 0.2180625533220933 0.9759347943580295 0.0
  outer loop
    vertex 31.049815148313225 34.833887762798454 2.5
    vertex 34.35187374873944 34.09607686212063 0.0
    vertex 31.049815148313225 34.833887762798454 0.0
  endloop
endfacet
facet normal 0.2180625533220933 0.9759347943580295 0.0
  outer loop
    vertex 34.35187374873944 34.09607686212063 0.0
    vertex 31.049815148313225 34.833887762798454 2.5
    vertex 34.35187374873944 34.09607686212063 2.5
  endloop
endfacet
facet normal 0.751839807478979 0.6593458151000671 0.0
  outer loop
    vertex 37.52532244642705 32.880947238486016 0.0
    vertex 39.667667014561765 30.438071450436027 2.5
    vertex 39.667667014561765 30.438071450436027 0.0
  endloop
endfacet
facet normal 0.751839807478979 0.6593458151000671 0.0
  outer loop
    vertex 39.667667014561765 30.438071450436027 2.5
    vertex 37.52532244642705 32.880947238486016 0.0
    vertex 37.52532244642705 32.880947238486016 2.5
  endloop
endfacet
facet normal 0.8314696123025451 0.5555702330196024 0.0
  outer loop
    vertex 39.667667014561765 30.438071450436027 0.0
    vertex 43.30127018922194 24.999999999999996 2.5
    vertex 43.30127018922194 24.999999999999996 0.0
  endloop
endfacet
facet normal 0.8314696123025451 0.5555702330196024 0.0
  outer loop
    vertex 43.30127018922194 24.999999999999996 2.5
    vertex 39.667667014561765 30.438071450436027 0.0
    vertex 39.667667014561765 30.438071450436027 2.5
  endloop
endfacet
facet normal 0.8968727415326884 0.442288690219001 -0.0
  outer loop
    vertex 43.30127018922194 24.999999999999996 0.0
    vertex 46.19397662556434 19.134171618254488 2.5
    vertex 46.19397662556434 19.134171618254488 0.0
  endloop
endfacet
facet normal 0.8968727415326884 0.442288690219001 -0.0
  outer loop
    vertex 46.19397662556434 19.134171618254488 2.5
    vertex 43.30127018922194 24.999999999999996 0.0
    vertex 43.30127018922194 24.999999999999996 2.5
  endloop
endfacet
facet normal 0.9469301294951057 0.321439465303162 0.0
  outer loop
    vertex 46.19397662556434 19.134171618254488 0.0
    vertex 48.29629131445342 12.940952255126037 2.5
    vertex 48.29629131445342 12.940952255126037 0.0
  endloop
endfacet
facet normal 0.9469301294951057 0.321439465303162 0.0
  outer loop
    vertex 48.29629131445342 12.940952255126037 2.5
    vertex 46.19397662556434 19.134171618254488 0.0
    vertex 46.19397662556434 19.134171618254488 2.5
  endloop
endfacet
facet normal 0.9807852804032307 0.19509032201612767 0.0
  outer loop
    vertex 48.29629131445342 12.940952255126037 0.0
    vertex 49.57224306869052 6.526309611002578 2.5
    vertex 49.57224306869052 6.526309611002578 0.0
  endloop
endfacet
facet normal 0.9807852804032307 0.19509032201612767 0.0
  outer loop
    vertex 49.57224306869052 6.526309611002578 2.5
    vertex 48.29629131445342 12.940952255126037 0.0
    vertex 48.29629131445342 12.940952255126037 2.5
  endloop
endfacet
facet normal 0.9978589232386036 0.06540312923014317 -0.0
  outer loop
    vertex 49.57224306869052 6.526309611002578 0.0
    vertex 50.0 0.0 2.5
    vertex 50.0 0.0 0.0
  endloop
endfacet
facet normal 0.9978589232386036 0.06540312923014317 -0.0
  outer loop
    vertex 50.0 0.0 2.5
    vertex 49.57224306869052 6.526309611002578 0.0
    vertex 49.57224306869052 6.526309611002578 2.5
  endloop
endfacet
facet normal 0.3103533452842077 0.9506212711016421 0.0
  outer loop
    vertex 34.35187374873944 34.09607686212063 2.5
    vertex 37.30526982915809 33.13186915777905 0.0
    vertex 34.35187374873944 34.09607686212063 0.0
  endloop
endfacet
facet normal 0.3103533452842077 0.9506212711016421 0.0
  outer loop
    vertex 37.30526982915809 33.13186915777905 0.0
    vertex 34.35187374873944 34.09607686212063 2.5
    vertex 37.30526982915809 33.13186915777905 2.5
  endloop
endfacet
facet normal 0.751839807478977 0.6593458151000695 0.0
  outer loop
    vertex 37.30526982915809 33.13186915777905 0.0
    vertex 37.52532244642705 32.880947238486016 2.5
    vertex 37.52532244642705 32.880947238486016 0.0
  endloop
endfacet
facet normal 0.751839807478977 0.6593458151000695 0.0
  outer loop
    vertex 37.52532244642705 32.880947238486016 2.5
    vertex 37.30526982915809 33.13186915777905 0.0
    vertex 37.30526982915809 33.13186915777905 2.5
  endloop
endfacet
endsolid Servo Lobe Side
